<svg width="25" height="25" viewBox="0 0 25 25" fill="none" xmlns="http://www.w3.org/2000/svg">
<path d="M7.81249 22.9167C6.80555 22.9167 5.94617 22.5608 5.23436 21.849C4.52256 21.1372 4.16666 20.2778 4.16666 19.2709V5.72921C4.16666 4.72226 4.52256 3.86289 5.23436 3.15108C5.94617 2.43928 6.80555 2.08337 7.81249 2.08337H18.75C19.3229 2.08337 19.8134 2.28737 20.2213 2.69535C20.6293 3.10334 20.8333 3.59379 20.8333 4.16671V16.6927C20.8333 16.9705 20.7639 17.2223 20.625 17.448C20.4861 17.6737 20.2951 17.8473 20.0521 17.9688C19.809 18.0903 19.618 18.2683 19.4792 18.5026C19.3403 18.737 19.2708 18.9931 19.2708 19.2709C19.2708 19.5487 19.3403 19.8091 19.4792 20.0521C19.618 20.2952 19.809 20.4688 20.0521 20.573C20.2778 20.6598 20.4644 20.79 20.612 20.9636C20.7595 21.1372 20.8333 21.3455 20.8333 21.5886V21.849C20.8333 22.1441 20.7335 22.3959 20.5338 22.6042C20.3342 22.8125 20.0868 22.9167 19.7917 22.9167H7.81249ZM11.0156 11.6927H13.9583L14.4792 13.1511C14.5139 13.2726 14.579 13.3681 14.6745 13.4375C14.77 13.507 14.8871 13.5417 15.026 13.5417C15.2344 13.5417 15.3993 13.4549 15.5208 13.2813C15.6424 13.1077 15.6597 12.9254 15.5729 12.7344L13.2812 6.64067C13.2465 6.51914 13.1771 6.42365 13.0729 6.35421C12.9687 6.28476 12.8472 6.25004 12.7083 6.25004H12.2396C12.1007 6.25004 11.9792 6.28476 11.875 6.35421C11.7708 6.42365 11.7014 6.51914 11.6667 6.64067L9.37499 12.7605C9.28818 12.9514 9.30989 13.1294 9.44009 13.2943C9.5703 13.4592 9.73957 13.5417 9.94791 13.5417C10.0868 13.5417 10.204 13.507 10.2995 13.4375C10.395 13.3681 10.4601 13.2726 10.4948 13.1511L11.0156 11.6927ZM11.3802 10.625L12.4479 7.60421H12.526L13.5677 10.625H11.3802ZM7.81249 20.8334H17.526C17.4219 20.5903 17.3394 20.3429 17.2786 20.0912C17.2179 19.8395 17.1875 19.566 17.1875 19.2709C17.1875 18.9931 17.2135 18.724 17.2656 18.4636C17.3177 18.2032 17.4045 17.9514 17.526 17.7084H7.81249C7.3611 17.7084 6.98784 17.8603 6.6927 18.1641C6.39756 18.4679 6.24999 18.8368 6.24999 19.2709C6.24999 19.7223 6.39756 20.0955 6.6927 20.3907C6.98784 20.6858 7.3611 20.8334 7.81249 20.8334Z" fill="black"/>
</svg>
