<svg width="25" height="25" viewBox="0 0 25 25" fill="none" xmlns="http://www.w3.org/2000/svg">
<path d="M12.5 22.9167C11.059 22.9167 9.70487 22.6433 8.43751 22.0964C7.17015 21.5495 6.06772 20.8073 5.13022 19.8698C4.19272 18.9323 3.45053 17.8299 2.90366 16.5625C2.35678 15.2952 2.08334 13.941 2.08334 12.5C2.08334 11.0591 2.35678 9.7049 2.90366 8.43754C3.45053 7.17018 4.19272 6.06775 5.13022 5.13025C6.06772 4.19275 7.17015 3.45056 8.43751 2.90369C9.70487 2.35681 11.059 2.08337 12.5 2.08337C13.941 2.08337 15.2951 2.35681 16.5625 2.90369C17.8299 3.45056 18.9323 4.19275 19.8698 5.13025C20.8073 6.06775 21.5495 7.17018 22.0964 8.43754C22.6432 9.7049 22.9167 11.0591 22.9167 12.5C22.9167 13.941 22.6432 15.2952 22.0964 16.5625C21.5495 17.8299 20.8073 18.9323 19.8698 19.8698C18.9323 20.8073 17.8299 21.5495 16.5625 22.0964C15.2951 22.6433 13.941 22.9167 12.5 22.9167ZM12.5 20.8334C14.8264 20.8334 16.7969 20.0261 18.4115 18.4115C20.0261 16.7969 20.8333 14.8264 20.8333 12.5C20.8333 10.1737 20.0261 8.20317 18.4115 6.58858C16.7969 4.974 14.8264 4.16671 12.5 4.16671C10.1736 4.16671 8.20314 4.974 6.58855 6.58858C4.97397 8.20317 4.16668 10.1737 4.16668 12.5C4.16668 14.8264 4.97397 16.7969 6.58855 18.4115C8.20314 20.0261 10.1736 20.8334 12.5 20.8334ZM12.5 18.75C10.7639 18.75 9.28821 18.1424 8.07293 16.9271C6.85765 15.7118 6.25001 14.2362 6.25001 12.5C6.25001 10.7639 6.85765 9.28824 8.07293 8.07296C9.28821 6.85768 10.7639 6.25004 12.5 6.25004C14.2361 6.25004 15.7118 6.85768 16.9271 8.07296C18.1424 9.28824 18.75 10.7639 18.75 12.5C18.75 14.2362 18.1424 15.7118 16.9271 16.9271C15.7118 18.1424 14.2361 18.75 12.5 18.75ZM12.5 16.6667C13.6458 16.6667 14.6267 16.2587 15.4427 15.4427C16.2587 14.6268 16.6667 13.6459 16.6667 12.5C16.6667 11.3542 16.2587 10.3733 15.4427 9.55733C14.6267 8.74136 13.6458 8.33337 12.5 8.33337C11.3542 8.33337 10.3733 8.74136 9.5573 9.55733C8.74133 10.3733 8.33334 11.3542 8.33334 12.5C8.33334 13.6459 8.74133 14.6268 9.5573 15.4427C10.3733 16.2587 11.3542 16.6667 12.5 16.6667ZM12.5 14.5834C11.9271 14.5834 11.4366 14.3794 11.0287 13.9714C10.6207 13.5634 10.4167 13.073 10.4167 12.5C10.4167 11.9271 10.6207 11.4367 11.0287 11.0287C11.4366 10.6207 11.9271 10.4167 12.5 10.4167C13.0729 10.4167 13.5634 10.6207 13.9714 11.0287C14.3794 11.4367 14.5833 11.9271 14.5833 12.5C14.5833 13.073 14.3794 13.5634 13.9714 13.9714C13.5634 14.3794 13.0729 14.5834 12.5 14.5834Z" fill="black"/>
</svg>
